<?xml version="1.0" standalone="no"?><!DOCTYPE svg PUBLIC "-//W3C//DTD SVG 1.1//EN" "http://www.w3.org/Graphics/SVG/1.1/DTD/svg11.dtd"><svg t="1723861583371" class="icon" viewBox="0 0 1024 1024" version="1.1" xmlns="http://www.w3.org/2000/svg" p-id="10019" width="16" height="16" xmlns:xlink="http://www.w3.org/1999/xlink"><path d="M384 185h456v136H384z m-200 0h136v656H184z m696-73H144c-17.7 0-32 14.3-32 32v1c0-17.7 14.3-32 32-32h736c17.7 0 32 14.3 32 32v-1c0-17.7-14.3-32-32-32zM384 385h456v456H384z" fill="#8eef97" p-id="10020" data-spm-anchor-id="a313x.search_index.0.i15.13793a81QDMNRr" class="selected"></path><path d="M880 113H144c-17.7 0-32 14.3-32 32v736c0 17.7 14.3 32 32 32h736c17.7 0 32-14.3 32-32V145c0-17.7-14.3-32-32-32zM320 841H184V185h136v656z m520 0H384V385h456v456z m0-520H384V185h456v136z" p-id="10021" data-spm-anchor-id="a313x.search_index.0.i13.13793a81QDMNRr" class="" fill="#5a8b5f"></path></svg>